<mxfile host="Electron" modified="2025-02-26T17:29:17.628Z" agent="Mozilla/5.0 (Windows NT 10.0; Win64; x64) AppleWebKit/537.36 (KHTML, like Gecko) draw.io/24.1.0 Chrome/120.0.6099.109 Electron/28.1.0 Safari/537.36" etag="i-mm1gA3mNMm3Ygw9keq" version="24.1.0" type="device">
  <diagram name="Page-1" id="c3wB42WakTabjYyB9tCX">
    <mxGraphModel dx="1277" dy="884" grid="0" gridSize="10" guides="0" tooltips="1" connect="1" arrows="1" fold="1" page="0" pageScale="1" pageWidth="1100" pageHeight="850" math="0" shadow="0">
      <root>
        <mxCell id="0" />
        <mxCell id="1" parent="0" />
        <mxCell id="xVHF0jcyHTV_4FlUkKKW-3" style="edgeStyle=orthogonalEdgeStyle;rounded=1;orthogonalLoop=1;jettySize=auto;html=1;exitX=1;exitY=0.5;exitDx=0;exitDy=0;entryX=0;entryY=0.5;entryDx=0;entryDy=0;" edge="1" parent="1">
          <mxGeometry relative="1" as="geometry">
            <mxPoint x="360" y="341" as="sourcePoint" />
            <mxPoint x="400" y="341" as="targetPoint" />
          </mxGeometry>
        </mxCell>
        <mxCell id="xVHF0jcyHTV_4FlUkKKW-1" value="Encapsulate&lt;br&gt;Top Level Nodes" style="shape=process;whiteSpace=wrap;html=1;backgroundOutline=1;dashed=1;fillColor=#fff2cc;strokeColor=#d6b656;rounded=1;" vertex="1" parent="1">
          <mxGeometry x="240" y="310" width="120" height="60" as="geometry" />
        </mxCell>
        <mxCell id="xVHF0jcyHTV_4FlUkKKW-7" style="edgeStyle=orthogonalEdgeStyle;rounded=1;orthogonalLoop=1;jettySize=auto;html=1;exitX=1;exitY=0.5;exitDx=0;exitDy=0;" edge="1" parent="1">
          <mxGeometry relative="1" as="geometry">
            <mxPoint x="520" y="341" as="sourcePoint" />
            <mxPoint x="580" y="341" as="targetPoint" />
          </mxGeometry>
        </mxCell>
        <mxCell id="xVHF0jcyHTV_4FlUkKKW-2" value="Create Explicit Stream Inputs" style="shape=process;whiteSpace=wrap;html=1;backgroundOutline=1;dashed=1;fillColor=#fff2cc;strokeColor=#d6b656;rounded=1;" vertex="1" parent="1">
          <mxGeometry x="400" y="310" width="120" height="60" as="geometry" />
        </mxCell>
        <mxCell id="xVHF0jcyHTV_4FlUkKKW-5" style="edgeStyle=orthogonalEdgeStyle;rounded=1;orthogonalLoop=1;jettySize=auto;html=1;exitX=1;exitY=0.5;exitDx=0;exitDy=0;exitPerimeter=0;" edge="1" parent="1">
          <mxGeometry relative="1" as="geometry">
            <mxPoint x="160" y="341" as="sourcePoint" />
            <mxPoint x="240" y="341" as="targetPoint" />
          </mxGeometry>
        </mxCell>
        <mxCell id="xVHF0jcyHTV_4FlUkKKW-4" value="MTLX" style="shape=cylinder3;whiteSpace=wrap;html=1;boundedLbl=1;backgroundOutline=1;size=15;fillColor=#dae8fc;strokeColor=#6c8ebf;rounded=1;" vertex="1" parent="1">
          <mxGeometry x="100" y="300" width="60" height="80" as="geometry" />
        </mxCell>
        <mxCell id="xVHF0jcyHTV_4FlUkKKW-36" style="edgeStyle=orthogonalEdgeStyle;rounded=1;orthogonalLoop=1;jettySize=auto;html=1;dashed=1;entryX=0.5;entryY=0;entryDx=0;entryDy=0;entryPerimeter=0;exitX=0.5;exitY=1;exitDx=0;exitDy=0;exitPerimeter=0;" edge="1" parent="1" source="xVHF0jcyHTV_4FlUkKKW-6" target="xVHF0jcyHTV_4FlUkKKW-11">
          <mxGeometry relative="1" as="geometry">
            <mxPoint x="610" y="420" as="sourcePoint" />
            <Array as="points">
              <mxPoint x="610" y="415" />
              <mxPoint x="130" y="415" />
            </Array>
          </mxGeometry>
        </mxCell>
        <mxCell id="xVHF0jcyHTV_4FlUkKKW-6" value="&quot;Valid&quot;&lt;div&gt;MTLX&lt;/div&gt;" style="shape=cylinder3;whiteSpace=wrap;html=1;boundedLbl=1;backgroundOutline=1;size=15;fillColor=#dae8fc;strokeColor=#6c8ebf;rounded=1;" vertex="1" parent="1">
          <mxGeometry x="580" y="300" width="60" height="80" as="geometry" />
        </mxCell>
        <mxCell id="xVHF0jcyHTV_4FlUkKKW-15" style="edgeStyle=orthogonalEdgeStyle;rounded=1;orthogonalLoop=1;jettySize=auto;html=1;exitX=0.5;exitY=0;exitDx=0;exitDy=0;exitPerimeter=0;entryX=0.25;entryY=1;entryDx=0;entryDy=0;" edge="1" parent="1" source="xVHF0jcyHTV_4FlUkKKW-22" target="xVHF0jcyHTV_4FlUkKKW-14">
          <mxGeometry relative="1" as="geometry" />
        </mxCell>
        <mxCell id="xVHF0jcyHTV_4FlUkKKW-8" value="USD&lt;br&gt;Camera" style="shape=cylinder3;whiteSpace=wrap;html=1;boundedLbl=1;backgroundOutline=1;size=15;fillColor=#d5e8d4;strokeColor=#82b366;rounded=1;" vertex="1" parent="1">
          <mxGeometry x="228" y="718" width="60" height="80" as="geometry" />
        </mxCell>
        <mxCell id="xVHF0jcyHTV_4FlUkKKW-16" style="edgeStyle=orthogonalEdgeStyle;rounded=1;orthogonalLoop=1;jettySize=auto;html=1;exitX=0.5;exitY=0;exitDx=0;exitDy=0;" edge="1" parent="1" source="xVHF0jcyHTV_4FlUkKKW-21" target="xVHF0jcyHTV_4FlUkKKW-14">
          <mxGeometry relative="1" as="geometry">
            <mxPoint x="398" y="614" as="sourcePoint" />
          </mxGeometry>
        </mxCell>
        <mxCell id="xVHF0jcyHTV_4FlUkKKW-17" style="edgeStyle=orthogonalEdgeStyle;rounded=1;orthogonalLoop=1;jettySize=auto;html=1;entryX=0.5;entryY=1;entryDx=0;entryDy=0;" edge="1" parent="1" source="xVHF0jcyHTV_4FlUkKKW-10" target="xVHF0jcyHTV_4FlUkKKW-24">
          <mxGeometry relative="1" as="geometry">
            <Array as="points">
              <mxPoint x="533" y="695" />
              <mxPoint x="533" y="695" />
            </Array>
          </mxGeometry>
        </mxCell>
        <mxCell id="xVHF0jcyHTV_4FlUkKKW-10" value="USD&lt;br&gt;Geometry" style="shape=cylinder3;whiteSpace=wrap;html=1;boundedLbl=1;backgroundOutline=1;size=15;fillColor=#d5e8d4;strokeColor=#82b366;rounded=1;" vertex="1" parent="1">
          <mxGeometry x="503" y="718" width="60" height="80" as="geometry" />
        </mxCell>
        <mxCell id="xVHF0jcyHTV_4FlUkKKW-13" style="edgeStyle=orthogonalEdgeStyle;rounded=1;orthogonalLoop=1;jettySize=auto;html=1;exitX=1;exitY=0.5;exitDx=0;exitDy=0;exitPerimeter=0;" edge="1" parent="1" source="xVHF0jcyHTV_4FlUkKKW-11" target="xVHF0jcyHTV_4FlUkKKW-12">
          <mxGeometry relative="1" as="geometry" />
        </mxCell>
        <mxCell id="xVHF0jcyHTV_4FlUkKKW-11" value="MTLX" style="shape=cylinder3;whiteSpace=wrap;html=1;boundedLbl=1;backgroundOutline=1;size=15;fillColor=#dae8fc;strokeColor=#6c8ebf;rounded=1;" vertex="1" parent="1">
          <mxGeometry x="100" y="492" width="60" height="80" as="geometry" />
        </mxCell>
        <mxCell id="xVHF0jcyHTV_4FlUkKKW-18" style="edgeStyle=orthogonalEdgeStyle;rounded=1;orthogonalLoop=1;jettySize=auto;html=1;exitX=1;exitY=0.5;exitDx=0;exitDy=0;" edge="1" parent="1" source="xVHF0jcyHTV_4FlUkKKW-12" target="xVHF0jcyHTV_4FlUkKKW-14">
          <mxGeometry relative="1" as="geometry" />
        </mxCell>
        <mxCell id="xVHF0jcyHTV_4FlUkKKW-12" value="Import as USD Stage" style="shape=process;whiteSpace=wrap;html=1;backgroundOutline=1;fillColor=#ffe6cc;strokeColor=#d79b00;rounded=1;" vertex="1" parent="1">
          <mxGeometry x="198" y="502" width="120" height="60" as="geometry" />
        </mxCell>
        <mxCell id="xVHF0jcyHTV_4FlUkKKW-30" style="edgeStyle=orthogonalEdgeStyle;rounded=1;orthogonalLoop=1;jettySize=auto;html=1;entryX=0;entryY=0.5;entryDx=0;entryDy=0;" edge="1" parent="1" source="xVHF0jcyHTV_4FlUkKKW-14" target="xVHF0jcyHTV_4FlUkKKW-29">
          <mxGeometry relative="1" as="geometry" />
        </mxCell>
        <mxCell id="xVHF0jcyHTV_4FlUkKKW-14" value="Insert&lt;br&gt;Scene" style="shape=process;whiteSpace=wrap;html=1;backgroundOutline=1;fillColor=#ffe6cc;strokeColor=#d79b00;rounded=1;" vertex="1" parent="1">
          <mxGeometry x="338" y="502" width="120" height="60" as="geometry" />
        </mxCell>
        <mxCell id="xVHF0jcyHTV_4FlUkKKW-20" style="edgeStyle=orthogonalEdgeStyle;rounded=1;orthogonalLoop=1;jettySize=auto;html=1;" edge="1" parent="1" source="xVHF0jcyHTV_4FlUkKKW-19" target="xVHF0jcyHTV_4FlUkKKW-21">
          <mxGeometry relative="1" as="geometry">
            <mxPoint x="398" y="705" as="targetPoint" />
          </mxGeometry>
        </mxCell>
        <mxCell id="xVHF0jcyHTV_4FlUkKKW-19" value="HDR" style="shape=cylinder3;whiteSpace=wrap;html=1;boundedLbl=1;backgroundOutline=1;size=15;fillColor=#d5e8d4;strokeColor=#82b366;rounded=1;" vertex="1" parent="1">
          <mxGeometry x="369" y="718" width="60" height="80" as="geometry" />
        </mxCell>
        <mxCell id="xVHF0jcyHTV_4FlUkKKW-21" value="Create&lt;br&gt;Skydome&lt;br&gt;Reference" style="shape=process;whiteSpace=wrap;html=1;backgroundOutline=1;fillColor=#ffe6cc;strokeColor=#d79b00;rounded=1;" vertex="1" parent="1">
          <mxGeometry x="339" y="625" width="120" height="60" as="geometry" />
        </mxCell>
        <mxCell id="xVHF0jcyHTV_4FlUkKKW-23" value="" style="edgeStyle=orthogonalEdgeStyle;rounded=1;orthogonalLoop=1;jettySize=auto;html=1;exitX=0.5;exitY=0;exitDx=0;exitDy=0;exitPerimeter=0;" edge="1" parent="1" source="xVHF0jcyHTV_4FlUkKKW-8" target="xVHF0jcyHTV_4FlUkKKW-22">
          <mxGeometry relative="1" as="geometry">
            <mxPoint x="268" y="725" as="sourcePoint" />
            <mxPoint x="368" y="570" as="targetPoint" />
          </mxGeometry>
        </mxCell>
        <mxCell id="xVHF0jcyHTV_4FlUkKKW-22" value="Create&lt;br&gt;Camera / Camera&lt;br&gt;Reference" style="shape=process;whiteSpace=wrap;html=1;backgroundOutline=1;fillColor=#ffe6cc;strokeColor=#d79b00;rounded=1;" vertex="1" parent="1">
          <mxGeometry x="198" y="625" width="120" height="60" as="geometry" />
        </mxCell>
        <mxCell id="xVHF0jcyHTV_4FlUkKKW-25" style="edgeStyle=orthogonalEdgeStyle;rounded=1;orthogonalLoop=1;jettySize=auto;html=1;entryX=0.75;entryY=1;entryDx=0;entryDy=0;" edge="1" parent="1" source="xVHF0jcyHTV_4FlUkKKW-24" target="xVHF0jcyHTV_4FlUkKKW-14">
          <mxGeometry relative="1" as="geometry">
            <Array as="points">
              <mxPoint x="533" y="584" />
              <mxPoint x="428" y="584" />
            </Array>
          </mxGeometry>
        </mxCell>
        <mxCell id="xVHF0jcyHTV_4FlUkKKW-24" value="Create&lt;br&gt;Geometry&lt;br&gt;Reference" style="shape=process;whiteSpace=wrap;html=1;backgroundOutline=1;fillColor=#ffe6cc;strokeColor=#d79b00;rounded=1;" vertex="1" parent="1">
          <mxGeometry x="473" y="625" width="120" height="60" as="geometry" />
        </mxCell>
        <mxCell id="xVHF0jcyHTV_4FlUkKKW-26" value="Add&lt;br&gt;Rendering&amp;nbsp;&lt;br&gt;Preferences" style="shape=process;whiteSpace=wrap;html=1;backgroundOutline=1;dashed=1;fillColor=#ffe6cc;strokeColor=#d79b00;rounded=1;" vertex="1" parent="1">
          <mxGeometry x="618" y="625" width="120" height="60" as="geometry" />
        </mxCell>
        <mxCell id="xVHF0jcyHTV_4FlUkKKW-28" style="edgeStyle=orthogonalEdgeStyle;rounded=1;orthogonalLoop=1;jettySize=auto;html=1;exitX=0.5;exitY=0;exitDx=0;exitDy=0;entryX=0.896;entryY=1.026;entryDx=0;entryDy=0;entryPerimeter=0;dashed=1;" edge="1" parent="1" source="xVHF0jcyHTV_4FlUkKKW-26" target="xVHF0jcyHTV_4FlUkKKW-14">
          <mxGeometry relative="1" as="geometry">
            <Array as="points">
              <mxPoint x="678" y="576" />
              <mxPoint x="445" y="576" />
            </Array>
          </mxGeometry>
        </mxCell>
        <mxCell id="xVHF0jcyHTV_4FlUkKKW-34" style="edgeStyle=orthogonalEdgeStyle;rounded=1;orthogonalLoop=1;jettySize=auto;html=1;exitX=1;exitY=0.75;exitDx=0;exitDy=0;entryX=0;entryY=0.5;entryDx=0;entryDy=0;" edge="1" parent="1" source="xVHF0jcyHTV_4FlUkKKW-29" target="xVHF0jcyHTV_4FlUkKKW-32">
          <mxGeometry relative="1" as="geometry">
            <Array as="points">
              <mxPoint x="618" y="544" />
              <mxPoint x="708" y="544" />
              <mxPoint x="708" y="604" />
              <mxPoint x="758" y="604" />
              <mxPoint x="758" y="653" />
            </Array>
          </mxGeometry>
        </mxCell>
        <mxCell id="xVHF0jcyHTV_4FlUkKKW-35" style="edgeStyle=orthogonalEdgeStyle;rounded=1;orthogonalLoop=1;jettySize=auto;html=1;exitX=1;exitY=0.25;exitDx=0;exitDy=0;dashed=1;" edge="1" parent="1" source="xVHF0jcyHTV_4FlUkKKW-29" target="xVHF0jcyHTV_4FlUkKKW-31">
          <mxGeometry relative="1" as="geometry">
            <mxPoint x="752" y="498" as="targetPoint" />
            <Array as="points">
              <mxPoint x="618" y="514" />
            </Array>
          </mxGeometry>
        </mxCell>
        <mxCell id="xVHF0jcyHTV_4FlUkKKW-40" style="edgeStyle=orthogonalEdgeStyle;rounded=1;orthogonalLoop=1;jettySize=auto;html=1;exitX=1;exitY=0.5;exitDx=0;exitDy=0;dashed=1;entryX=0;entryY=0.5;entryDx=0;entryDy=0;" edge="1" parent="1" source="xVHF0jcyHTV_4FlUkKKW-29" target="xVHF0jcyHTV_4FlUkKKW-39">
          <mxGeometry relative="1" as="geometry">
            <Array as="points">
              <mxPoint x="618" y="529" />
              <mxPoint x="741" y="529" />
              <mxPoint x="741" y="581" />
            </Array>
          </mxGeometry>
        </mxCell>
        <mxCell id="xVHF0jcyHTV_4FlUkKKW-29" value="Insert Validation Metadata + Validate&lt;br&gt;Stage" style="shape=process;whiteSpace=wrap;html=1;backgroundOutline=1;dashed=1;fillColor=#ffe6cc;strokeColor=#d79b00;rounded=1;" vertex="1" parent="1">
          <mxGeometry x="498" y="502" width="120" height="60" as="geometry" />
        </mxCell>
        <mxCell id="xVHF0jcyHTV_4FlUkKKW-31" value="Save&lt;br&gt;Material Only" style="shape=process;whiteSpace=wrap;html=1;backgroundOutline=1;dashed=1;fillColor=#ffe6cc;strokeColor=#d79b00;rounded=1;" vertex="1" parent="1">
          <mxGeometry x="779" y="482" width="120" height="60" as="geometry" />
        </mxCell>
        <mxCell id="xVHF0jcyHTV_4FlUkKKW-55" style="edgeStyle=orthogonalEdgeStyle;rounded=1;orthogonalLoop=1;jettySize=auto;html=1;" edge="1" parent="1" source="xVHF0jcyHTV_4FlUkKKW-32" target="xVHF0jcyHTV_4FlUkKKW-48">
          <mxGeometry relative="1" as="geometry" />
        </mxCell>
        <mxCell id="xVHF0jcyHTV_4FlUkKKW-32" value="Save Complete Stage" style="shape=process;whiteSpace=wrap;html=1;backgroundOutline=1;fillColor=#ffe6cc;strokeColor=#d79b00;rounded=1;" vertex="1" parent="1">
          <mxGeometry x="779" y="623" width="120" height="60" as="geometry" />
        </mxCell>
        <mxCell id="xVHF0jcyHTV_4FlUkKKW-33" style="edgeStyle=orthogonalEdgeStyle;rounded=1;orthogonalLoop=1;jettySize=auto;html=1;entryX=0.5;entryY=0;entryDx=0;entryDy=0;dashed=1;" edge="1" parent="1" source="xVHF0jcyHTV_4FlUkKKW-12" target="xVHF0jcyHTV_4FlUkKKW-29">
          <mxGeometry relative="1" as="geometry">
            <Array as="points">
              <mxPoint x="258" y="478" />
              <mxPoint x="558" y="478" />
            </Array>
          </mxGeometry>
        </mxCell>
        <mxCell id="xVHF0jcyHTV_4FlUkKKW-38" style="edgeStyle=orthogonalEdgeStyle;rounded=1;orthogonalLoop=1;jettySize=auto;html=1;dashed=1;" edge="1" parent="1" source="xVHF0jcyHTV_4FlUkKKW-37">
          <mxGeometry relative="1" as="geometry">
            <mxPoint x="380" y="340.0000000000001" as="targetPoint" />
          </mxGeometry>
        </mxCell>
        <mxCell id="xVHF0jcyHTV_4FlUkKKW-37" value="Other&lt;br&gt;Pre-processing" style="shape=process;whiteSpace=wrap;html=1;backgroundOutline=1;dashed=1;fillColor=#fff2cc;strokeColor=#d6b656;rounded=1;" vertex="1" parent="1">
          <mxGeometry x="320" y="220" width="120" height="60" as="geometry" />
        </mxCell>
        <mxCell id="xVHF0jcyHTV_4FlUkKKW-39" value="Flatten&lt;br&gt;Stage" style="shape=process;whiteSpace=wrap;html=1;backgroundOutline=1;dashed=1;fillColor=#ffe6cc;strokeColor=#d79b00;rounded=1;" vertex="1" parent="1">
          <mxGeometry x="779" y="551" width="120" height="60" as="geometry" />
        </mxCell>
        <mxCell id="xVHF0jcyHTV_4FlUkKKW-44" value="USD" style="shape=cylinder3;whiteSpace=wrap;html=1;boundedLbl=1;backgroundOutline=1;size=15;fillColor=#d5e8d4;strokeColor=#82b366;rounded=1;" vertex="1" parent="1">
          <mxGeometry x="933.32" y="474" width="45" height="60" as="geometry" />
        </mxCell>
        <mxCell id="xVHF0jcyHTV_4FlUkKKW-47" value="USD" style="shape=cylinder3;whiteSpace=wrap;html=1;boundedLbl=1;backgroundOutline=1;size=15;fillColor=#d5e8d4;strokeColor=#82b366;rounded=1;" vertex="1" parent="1">
          <mxGeometry x="933.32" y="551" width="45" height="60" as="geometry" />
        </mxCell>
        <mxCell id="xVHF0jcyHTV_4FlUkKKW-48" value="USD" style="shape=cylinder3;whiteSpace=wrap;html=1;boundedLbl=1;backgroundOutline=1;size=15;fillColor=#d5e8d4;strokeColor=#82b366;rounded=1;" vertex="1" parent="1">
          <mxGeometry x="933.32" y="623" width="45" height="60" as="geometry" />
        </mxCell>
        <mxCell id="xVHF0jcyHTV_4FlUkKKW-52" style="edgeStyle=orthogonalEdgeStyle;rounded=1;orthogonalLoop=1;jettySize=auto;html=1;entryX=0;entryY=0.5;entryDx=0;entryDy=0;entryPerimeter=0;" edge="1" parent="1" source="xVHF0jcyHTV_4FlUkKKW-39" target="xVHF0jcyHTV_4FlUkKKW-47">
          <mxGeometry relative="1" as="geometry" />
        </mxCell>
        <mxCell id="xVHF0jcyHTV_4FlUkKKW-54" style="edgeStyle=orthogonalEdgeStyle;rounded=1;orthogonalLoop=1;jettySize=auto;html=1;entryX=0;entryY=0;entryDx=0;entryDy=37.5;entryPerimeter=0;" edge="1" parent="1" source="xVHF0jcyHTV_4FlUkKKW-31" target="xVHF0jcyHTV_4FlUkKKW-44">
          <mxGeometry relative="1" as="geometry" />
        </mxCell>
        <mxCell id="xVHF0jcyHTV_4FlUkKKW-58" style="edgeStyle=orthogonalEdgeStyle;rounded=1;orthogonalLoop=1;jettySize=auto;html=1;exitX=1;exitY=0.5;exitDx=0;exitDy=0;exitPerimeter=0;entryX=0;entryY=0.5;entryDx=0;entryDy=0;" edge="1" parent="1" source="xVHF0jcyHTV_4FlUkKKW-56" target="xVHF0jcyHTV_4FlUkKKW-57">
          <mxGeometry relative="1" as="geometry" />
        </mxCell>
        <mxCell id="xVHF0jcyHTV_4FlUkKKW-56" value="USD" style="shape=cylinder3;whiteSpace=wrap;html=1;boundedLbl=1;backgroundOutline=1;size=15;fillColor=#d5e8d4;strokeColor=#82b366;rounded=1;" vertex="1" parent="1">
          <mxGeometry x="100" y="886" width="60" height="80" as="geometry" />
        </mxCell>
        <mxCell id="xVHF0jcyHTV_4FlUkKKW-60" style="edgeStyle=orthogonalEdgeStyle;rounded=1;orthogonalLoop=1;jettySize=auto;html=1;exitX=1;exitY=0.5;exitDx=0;exitDy=0;" edge="1" parent="1" target="xVHF0jcyHTV_4FlUkKKW-59">
          <mxGeometry relative="1" as="geometry">
            <mxPoint x="485" y="1005" as="sourcePoint" />
          </mxGeometry>
        </mxCell>
        <mxCell id="xVHF0jcyHTV_4FlUkKKW-62" style="edgeStyle=orthogonalEdgeStyle;rounded=1;orthogonalLoop=1;jettySize=auto;html=1;exitX=1;exitY=0.5;exitDx=0;exitDy=0;entryX=0;entryY=0.5;entryDx=0;entryDy=0;" edge="1" parent="1" target="xVHF0jcyHTV_4FlUkKKW-61">
          <mxGeometry relative="1" as="geometry">
            <mxPoint x="360" y="1005" as="sourcePoint" />
          </mxGeometry>
        </mxCell>
        <mxCell id="xVHF0jcyHTV_4FlUkKKW-64" value="" style="edgeStyle=orthogonalEdgeStyle;rounded=1;orthogonalLoop=1;jettySize=auto;html=1;" edge="1" parent="1" source="xVHF0jcyHTV_4FlUkKKW-57" target="xVHF0jcyHTV_4FlUkKKW-63">
          <mxGeometry relative="1" as="geometry" />
        </mxCell>
        <mxCell id="xVHF0jcyHTV_4FlUkKKW-57" value="Iterate Over all Materials" style="shape=process;whiteSpace=wrap;html=1;backgroundOutline=1;fillColor=#ffe6cc;strokeColor=#d79b00;rounded=1;" vertex="1" parent="1">
          <mxGeometry x="240" y="896" width="120" height="60" as="geometry" />
        </mxCell>
        <mxCell id="xVHF0jcyHTV_4FlUkKKW-70" style="edgeStyle=orthogonalEdgeStyle;rounded=0;orthogonalLoop=1;jettySize=auto;html=1;entryX=0;entryY=0.5;entryDx=0;entryDy=0;fontSize=12;startSize=8;endSize=8;exitX=1;exitY=0.5;exitDx=0;exitDy=0;exitPerimeter=0;" edge="1" parent="1" source="xVHF0jcyHTV_4FlUkKKW-59" target="xVHF0jcyHTV_4FlUkKKW-69">
          <mxGeometry relative="1" as="geometry" />
        </mxCell>
        <mxCell id="xVHF0jcyHTV_4FlUkKKW-59" value="Image" style="shape=cylinder3;whiteSpace=wrap;html=1;boundedLbl=1;backgroundOutline=1;size=15;fillColor=#e1d5e7;strokeColor=#9673a6;rounded=1;" vertex="1" parent="1">
          <mxGeometry x="554" y="966" width="60" height="80" as="geometry" />
        </mxCell>
        <mxCell id="xVHF0jcyHTV_4FlUkKKW-61" value="Render" style="shape=process;whiteSpace=wrap;html=1;backgroundOutline=1;fillColor=#ffe6cc;strokeColor=#d79b00;rounded=1;" vertex="1" parent="1">
          <mxGeometry x="395" y="976" width="120" height="60" as="geometry" />
        </mxCell>
        <mxCell id="xVHF0jcyHTV_4FlUkKKW-63" value="Bind Material To&lt;br&gt;Scene Geometry" style="shape=process;whiteSpace=wrap;html=1;backgroundOutline=1;fillColor=#ffe6cc;strokeColor=#d79b00;rounded=1;" vertex="1" parent="1">
          <mxGeometry x="240" y="976" width="120" height="60" as="geometry" />
        </mxCell>
        <mxCell id="xVHF0jcyHTV_4FlUkKKW-65" style="edgeStyle=orthogonalEdgeStyle;rounded=1;orthogonalLoop=1;jettySize=auto;html=1;entryX=0.5;entryY=0;entryDx=0;entryDy=0;entryPerimeter=0;exitX=0.5;exitY=1;exitDx=0;exitDy=0;exitPerimeter=0;" edge="1" parent="1" source="xVHF0jcyHTV_4FlUkKKW-48" target="xVHF0jcyHTV_4FlUkKKW-56">
          <mxGeometry relative="1" as="geometry">
            <Array as="points">
              <mxPoint x="1000" y="683" />
              <mxPoint x="1000" y="814" />
              <mxPoint x="130" y="814" />
            </Array>
          </mxGeometry>
        </mxCell>
        <mxCell id="xVHF0jcyHTV_4FlUkKKW-66" value="MaterialX USD Sanitization" style="swimlane;whiteSpace=wrap;html=1;" vertex="1" parent="1">
          <mxGeometry x="61" y="187" width="956" height="210" as="geometry" />
        </mxCell>
        <mxCell id="xVHF0jcyHTV_4FlUkKKW-67" value="MaterialX To USD Building" style="swimlane;whiteSpace=wrap;html=1;" vertex="1" parent="1">
          <mxGeometry x="62" y="441" width="958" height="385" as="geometry" />
        </mxCell>
        <mxCell id="xVHF0jcyHTV_4FlUkKKW-68" value="USD Test Suite Generation" style="swimlane;whiteSpace=wrap;html=1;" vertex="1" parent="1">
          <mxGeometry x="60" y="843" width="961" height="221" as="geometry" />
        </mxCell>
        <mxCell id="xVHF0jcyHTV_4FlUkKKW-72" style="edgeStyle=none;curved=1;rounded=0;orthogonalLoop=1;jettySize=auto;html=1;fontSize=12;startSize=8;endSize=8;" edge="1" parent="xVHF0jcyHTV_4FlUkKKW-68" source="xVHF0jcyHTV_4FlUkKKW-69" target="xVHF0jcyHTV_4FlUkKKW-71">
          <mxGeometry relative="1" as="geometry" />
        </mxCell>
        <mxCell id="xVHF0jcyHTV_4FlUkKKW-69" value="Image Comparison" style="shape=process;whiteSpace=wrap;html=1;backgroundOutline=1;fillColor=#ffe6cc;strokeColor=#d79b00;rounded=1;" vertex="1" parent="xVHF0jcyHTV_4FlUkKKW-68">
          <mxGeometry x="588" y="133" width="120" height="60" as="geometry" />
        </mxCell>
        <mxCell id="xVHF0jcyHTV_4FlUkKKW-71" value="Test&lt;br&gt;Suite&lt;br&gt;Results" style="shape=cylinder3;whiteSpace=wrap;html=1;boundedLbl=1;backgroundOutline=1;size=15;fillColor=#e1d5e7;strokeColor=#9673a6;rounded=1;" vertex="1" parent="xVHF0jcyHTV_4FlUkKKW-68">
          <mxGeometry x="750" y="123" width="60" height="80" as="geometry" />
        </mxCell>
        <mxCell id="xVHF0jcyHTV_4FlUkKKW-75" style="edgeStyle=none;curved=1;rounded=0;orthogonalLoop=1;jettySize=auto;html=1;exitX=0.5;exitY=1;exitDx=0;exitDy=0;exitPerimeter=0;fontSize=12;startSize=8;endSize=8;" edge="1" parent="xVHF0jcyHTV_4FlUkKKW-68" source="xVHF0jcyHTV_4FlUkKKW-74" target="xVHF0jcyHTV_4FlUkKKW-69">
          <mxGeometry relative="1" as="geometry" />
        </mxCell>
        <mxCell id="xVHF0jcyHTV_4FlUkKKW-74" value="Compare&lt;br&gt;Image" style="shape=cylinder3;whiteSpace=wrap;html=1;boundedLbl=1;backgroundOutline=1;size=15;fillColor=#f5f5f5;strokeColor=#666666;rounded=1;fontColor=#333333;" vertex="1" parent="xVHF0jcyHTV_4FlUkKKW-68">
          <mxGeometry x="617" y="37" width="60" height="80" as="geometry" />
        </mxCell>
      </root>
    </mxGraphModel>
  </diagram>
</mxfile>
